# xmcd
#
# Track frame offsets: 
#        150
#        45515
#        54510
#        71760
#        93417
#        124935
#        147000
#        165665
#        187525
#        205690
#        232742
#        260812
#
# Disc length: 4538 seconds
#
# Revision: 7
# Processed by: cddbd v1.5.2PL0 Copyright (c) Steve Scherf et al.
# Submitted via: ExactAudioCopy v1.3
#
DISCID=9d11b80c
DTITLE=Huelgas Ensemble, Paul Van Nevel - Canções, Vilancicos e Motete
DTITLE=s Portugueses
DYEAR=1994
DGENRE=Renaissance
TTITLE0=Dexen que llore mi nio
TTITLE1=Qué bien siente Galatea
TTITLE2=Dos estrellas le siguen
TTITLE3=Laetatus sum
TTITLE4=Botay fora
TTITLE5=Heu me Domine
TTITLE6=Parce mihi Domine
TTITLE7=Foyse gastamdo a esperança
TTITLE8=Dipues vienes dalhaldea
TTITLE9=Na fomte esta Lianor
TTITLE10=Quiem viese aquel dia
TTITLE11=Antonya Flaciquia Gasipà - Negro de Navidad a 5
EXTD=
EXTT0=
EXTT1=
EXTT2=
EXTT3=
EXTT4=
EXTT5=
EXTT6=
EXTT7=
EXTT8=
EXTT9=
EXTT10=
EXTT11=
PLAYORDER=
